<?xml version="1.0" encoding="utf-8"?><!-- Uploaded to: SVG Repo, www.svgrepo.com, Generator: SVG Repo Mixer Tools -->
<svg version="1.1" id="designs" xmlns="http://www.w3.org/2000/svg" xmlns:xlink="http://www.w3.org/1999/xlink" 
	 width="800px" height="800px" viewBox="0 0 32 32" xml:space="preserve">
<style type="text/css">
	.sketchy_een{fill:#111918;}
</style>
<path class="sketchy_een" d="M22.923,27.407c-0.863,0-1.728-0.008-2.591-0.017l-1.223-0.011c-0.836-0.006-1.673-0.012-2.509-0.045
	c-0.328-0.013-0.656-0.018-0.984-0.018c-0.297,0-1.586,0.014-1.586,0.014c-0.9,0.002-1.799,0.006-2.698,0.022l-0.83,0.02
	c-0.502,0.013-1.003,0.026-1.504,0.026L6.21,27.39c-0.854-0.007-1.787-0.05-2.933-0.135c-0.127-0.01-0.245-0.04-0.36-0.092
	l-0.105,0.013c-0.215,0-0.428-0.093-0.585-0.253C2.076,26.769,1.995,26.571,2,26.366c0.008-0.302,0.023-0.602,0.041-0.904
	c0.106-1.719,0.155-3.258,0.149-4.703c-0.005-1.122-0.041-2.244-0.076-3.365l-0.045-1.506c-0.041-1.595-0.037-3.179-0.028-4.935
	c0.001-0.556,0.015-1.111,0.029-1.668l0.019-0.839c0.022-0.946-0.001-1.874-0.026-2.657c-0.006-0.19,0.068-0.375,0.209-0.52
	c0.148-0.153,0.35-0.241,0.554-0.241c0.053,0,0.103,0.015,0.156,0.03C3.197,4.974,3.341,4.924,3.5,4.91
	c1.279-0.103,2.607-0.176,4.061-0.224c1.223-0.041,2.446-0.049,3.67-0.049l1.731,0.002c0.455,0,2.274,0.016,2.729,0.016
	c0.635,0,1.27-0.009,1.905-0.018l1.416-0.019c0.603-0.009,1.207-0.018,1.811-0.018l2.106,0.008c0,0,2.146-0.016,2.511-0.016
	c0.286,0,0.571,0.002,0.858,0.008c0.416,0.008,1.577,0.042,1.7,0.042l0.198-0.004c0.072-0.002,0.143-0.008,0.214-0.014
	c0.088-0.007,0.175-0.015,0.263-0.015c0.209,0.008,0.351,0.054,0.508,0.149c0.005,0,0.01,0,0.015,0c0.264,0,0.455,0.083,0.595,0.226
	C29.928,5.127,30.003,5.309,30,5.497c0,0-0.022,0.827-0.026,1.142c-0.01,0.823,0,1.643,0.01,2.464
	c0.007,0.525-0.002,1.045-0.012,1.565l-0.012,0.897c-0.004,0.516-0.004,2.476-0.004,2.476c0,0.475-0.017,2.414-0.017,2.414
	c-0.009,1.153-0.007,2.305-0.006,3.458l0.003,1.753c0.002,0.677,0.004,1.354-0.009,2.031c0,0-0.019,1.63-0.025,1.789l-0.005,0.12
	c-0.008,0.25-0.017,0.508-0.09,0.74c-0.083,0.264-0.295,0.464-0.565,0.536c-0.18,0.199-0.399,0.309-0.642,0.327
	c-0.189,0.013-0.377,0.035-0.565,0.056c-0.156,0.018-0.313,0.036-0.469,0.049c-0.305,0.027-0.612,0.036-0.916,0.046l-0.102,0.003
	c-0.421,0.015-0.844,0.019-1.266,0.023l-0.734,0.009c-0.541,0.008-1.082,0.012-1.623,0.012
	C22.924,27.407,22.923,27.407,22.923,27.407z M16.276,25.778c0.244,0,0.488,0.009,0.732,0.018l0.508,0.015
	c1.765,0.041,3.532,0.065,5.307,0.071c0.576,0,1.068-0.012,1.56-0.024l1.316-0.025c0.406-0.006,0.813-0.011,1.219-0.033
	c0.238-0.013,0.476-0.018,0.712-0.043c0.221-0.023,0.448-0.112,0.668-0.112l0.04-0.006l0.006-0.135
	c0.007-0.156,0.014-0.312,0.014-0.468c0.001-0.385,0.01-0.769,0.019-1.154c0.008-0.386,0.017-0.772,0.018-1.159l0.002-2.491
	c-0.002-1.616,0.004-3.231,0.02-4.846c0.007-0.559,0.007-1.117,0.008-1.676c0.001-1.083,0.003-2.166,0.045-3.248
	c0.042-1.109,0.041-2.217,0.041-3.325V6.406l-0.118-0.05c-0.166,0-0.281-0.005-0.398-0.01c0,0-0.738-0.031-0.955-0.045
	c-0.417-0.024-0.833-0.027-1.251-0.03l-3.054-0.03l-1.044-0.017c-0.54-0.01-1.08-0.02-1.622-0.023
	c-0.465-0.004-2.621-0.004-2.621-0.004h-0.302c-0.829,0-1.658-0.001-2.486-0.014l-0.812-0.014c-1.115-0.019-2.231-0.037-3.346-0.037
	c-0.413,0-0.826,0.002-1.24,0.009c-1.039,0.015-1.95,0.05-2.786,0.107c-0.79,0.054-1.58,0.129-2.37,0.205L3.642,6.496L3.598,6.714
	l0.002,0.251c0.001,0.389-0.004,0.778-0.008,1.167C3.587,8.578,3.581,9.024,3.585,9.47c0.003,0.703,0.012,1.406,0.021,2.11
	c0,0,0.029,2.058,0.037,2.893c0.007,0.529,0.028,1.056,0.049,1.584l0.03,0.781c0.057,1.596,0.082,3.234,0.074,4.87
	c-0.001,0.498-0.026,0.994-0.05,1.491c-0.015,0.295-0.029,0.591-0.039,0.887l-0.057,1.472c1.04,0.132,2.214,0.216,3.382,0.23
	l0.766,0.01c0.615,0.008,1.23,0.017,1.856,0.018c0.577,0,1.069-0.009,1.561-0.018c0.354-0.006,0.708-0.013,1.062-0.016
	c0.583-0.005,2.594-0.006,2.594-0.006L16.276,25.778z M12.171,22.379c-0.282,0-0.544-0.148-0.684-0.387
	c-0.316-0.185-0.496-0.468-0.499-0.781v-0.133c0.008-0.337,0.002-0.674-0.003-1.01c-0.004-0.25-0.003-1.246-0.003-1.246
	l-0.007-0.712c-0.007-0.597-0.014-1.194-0.003-1.791c0.03-1.429,0.023-2.859,0.017-4.288l-0.004-0.965
	c0-0.435,0.368-0.803,0.803-0.803l0.133,0.025l0.141-0.037c0.149,0,0.299,0.038,0.434,0.109l1.247,0.657
	c1.135,0.595,2.308,1.211,3.437,1.864l0.67,0.39c0.513,0.299,1.024,0.599,1.547,0.881c0.261,0.141,0.516,0.29,0.771,0.439
	c0.422,0.246,0.844,0.492,1.288,0.7c0.178,0.083,0.306,0.292,0.353,0.462c0.023,0.084,0.028,0.179,0.019,0.282
	c0.058,0.09,0.084,0.12,0.105,0.154c0.22,0.374,0.093,0.857-0.288,1.099c-0.125,0.079-0.247,0.158-0.368,0.241
	c-0.433,0.296-0.885,0.564-1.337,0.832l-0.629,0.377c-0.314,0.192-0.629,0.384-0.957,0.555c-0.269,0.14-0.542,0.272-0.814,0.403
	L17.26,19.83c-0.723,0.351-1.442,0.714-2.158,1.075l-0.108,0.055c-0.824,0.414-1.623,0.862-2.425,1.314
	C12.448,22.343,12.31,22.379,12.171,22.379z M12.583,12.637c-0.004,0.48-0.009,0.96-0.005,1.441l0.069,6.333l0.074-0.005
	c0.613-0.319,1.233-0.621,1.853-0.922c0.649-0.316,1.291-0.644,1.933-0.973l0.289-0.147c0.382-0.194,0.762-0.39,1.132-0.606
	c0.213-0.128,0.975-0.6,0.975-0.6c0.334-0.206,0.665-0.414,0.995-0.624l0.181-0.123l0.004-0.091
	c-0.204-0.111-0.406-0.224-0.609-0.338c-0.307-0.172-0.614-0.344-0.925-0.506c-0.741-0.383-1.463-0.786-2.185-1.2
	c-0.871-0.5-1.554-0.87-2.215-1.2l-1.562-0.781L12.583,12.637z"/>
</svg>